<svg width="49" height="49" viewBox="0 0 49 49" fill="none" xmlns="http://www.w3.org/2000/svg">
<path fill-rule="evenodd" clip-rule="evenodd" d="M0 7.5625C0 3.38585 3.38585 0 7.5625 0H40.8375C45.0142 0 48.4 3.38585 48.4 7.5625V40.8375C48.4 45.0142 45.0142 48.4 40.8375 48.4H7.5625C3.38585 48.4 0 45.0142 0 40.8375V7.5625ZM24.2 12.1C30.855 12.1 36.3 17.545 36.3 24.2C36.3 30.25 31.9138 35.3925 25.8638 36.3V27.6787H28.7375L29.3425 24.2H26.015V21.9313C26.015 21.0238 26.4688 20.1163 27.9813 20.1163H29.4938V17.0913C29.4938 17.0913 28.1325 16.7888 26.7713 16.7888C24.0488 16.7888 22.2338 18.4525 22.2338 21.4775V24.2H19.2087V27.6787H22.2338V36.1488C16.4863 35.2412 12.1 30.25 12.1 24.2C12.1 17.545 17.545 12.1 24.2 12.1Z" fill="#495E57"/>
</svg>

