<svg width="49" height="49" viewBox="0 0 49 49" fill="none" xmlns="http://www.w3.org/2000/svg">
<path d="M24.8 28.435C22.5313 28.435 20.565 26.62 20.565 24.2C20.565 21.9312 22.38 19.965 24.8 19.965C27.0688 19.965 29.035 21.78 29.035 24.2C29.035 26.4687 27.0688 28.435 24.8 28.435Z" fill="b#495E57"/>
<path fill-rule="evenodd" clip-rule="evenodd" d="M29.9425 13.915H19.6575C18.4475 14.0662 17.8425 14.2175 17.3888 14.3687C16.7838 14.52 16.33 14.8225 15.8763 15.2762C15.5172 15.6353 15.3476 15.9943 15.1426 16.4283C15.0885 16.5427 15.0319 16.6626 14.9688 16.7887C14.9454 16.8589 14.9184 16.9328 14.8894 17.0119C14.7312 17.4442 14.515 18.0347 14.515 19.0575V29.3425C14.6663 30.5525 14.8175 31.1575 14.9688 31.6112C15.12 32.2162 15.4225 32.67 15.8763 33.1237C16.2353 33.4828 16.5944 33.6524 17.0284 33.8575C17.1428 33.9116 17.2625 33.9681 17.3888 34.0312C17.459 34.0546 17.5328 34.0817 17.6119 34.1106C18.0442 34.2688 18.6347 34.485 19.6575 34.485H29.9425C31.1525 34.3337 31.7575 34.1825 32.2113 34.0312C32.8163 33.88 33.27 33.5775 33.7238 33.1237C34.0828 32.7647 34.2525 32.4057 34.4575 31.9717C34.5116 31.8572 34.5682 31.7375 34.6313 31.6112C34.6547 31.5411 34.6817 31.4672 34.7107 31.3881C34.8689 30.9558 35.085 30.3653 35.085 29.3425V19.0575C34.9338 17.8475 34.7825 17.2425 34.6313 16.7887C34.48 16.1837 34.1775 15.73 33.7238 15.2762C33.3647 14.9172 33.0057 14.7476 32.5717 14.5425C32.4574 14.4885 32.3373 14.4318 32.2113 14.3687C32.1411 14.3453 32.0673 14.3183 31.9882 14.2894C31.5559 14.1311 30.9654 13.915 29.9425 13.915ZM24.8 17.6962C21.17 17.6962 18.2963 20.57 18.2963 24.2C18.2963 27.83 21.17 30.7037 24.8 30.7037C28.43 30.7037 31.3038 27.83 31.3038 24.2C31.3038 20.57 28.43 17.6962 24.8 17.6962ZM32.9675 17.545C32.9675 18.3803 32.2904 19.0575 31.455 19.0575C30.6197 19.0575 29.9425 18.3803 29.9425 17.545C29.9425 16.7097 30.6197 16.0325 31.455 16.0325C32.2904 16.0325 32.9675 16.7097 32.9675 17.545Z" fill="#495E57"/>
<path fill-rule="evenodd" clip-rule="evenodd" d="M0.600037 7.5625C0.600037 3.38585 3.98588 0 8.16254 0H41.4375C45.6142 0 49 3.38585 49 7.5625V40.8375C49 45.0142 45.6142 48.4 41.4375 48.4H8.16254C3.98588 48.4 0.600037 45.0142 0.600037 40.8375V7.5625ZM19.6575 11.6462H29.9425C31.3038 11.7975 32.2113 11.9487 32.9675 12.2512C33.875 12.705 34.48 13.0075 35.2363 13.7637C35.9925 14.52 36.4463 15.2762 36.7488 16.0325C37.0513 16.7887 37.3538 17.6962 37.3538 19.0575V29.3425C37.2025 30.7037 37.0513 31.6112 36.7488 32.3675C36.295 33.275 35.9925 33.88 35.2363 34.6362C34.48 35.3925 33.7238 35.8462 32.9675 36.1487C32.2113 36.4512 31.3038 36.7537 29.9425 36.7537H19.6575C18.2963 36.6025 17.3888 36.4512 16.6325 36.1487C15.725 35.695 15.12 35.3925 14.3638 34.6362C13.6075 33.88 13.1538 33.1237 12.8513 32.3675C12.5488 31.6112 12.2463 30.7037 12.2463 29.3425V19.0575C12.3975 17.6962 12.5488 16.7887 12.8513 16.0325C13.305 15.125 13.6075 14.52 14.3638 13.7637C15.12 13.0075 15.8763 12.5537 16.6325 12.2512C17.3888 11.9487 18.2963 11.6462 19.6575 11.6462Z" fill="#495E57"/>
</svg>

