<svg width="50" height="49" viewBox="0 0 50 49" fill="none" xmlns="http://www.w3.org/2000/svg">
<path fill-rule="evenodd" clip-rule="evenodd" d="M0.650024 7.5625C0.650024 3.38585 4.03587 0 8.21252 0H41.4875C45.6642 0 49.05 3.38585 49.05 7.5625V40.8375C49.05 45.0142 45.6642 48.4 41.4875 48.4H8.21252C4.03587 48.4 0.650024 45.0142 0.650024 40.8375V7.5625ZM34.0763 17.3938C35.135 17.2425 36.0425 17.0913 36.95 16.6375C36.345 17.6963 35.4375 18.6038 34.3788 19.2087C34.6813 26.3175 29.5388 34.0312 20.3125 34.0312C17.59 34.0312 15.0188 33.1237 12.75 31.7625C15.3213 32.065 18.0438 31.3088 19.8588 29.9475C17.59 29.9475 15.775 28.435 15.17 26.4688C15.9263 26.62 16.6825 26.4688 17.4388 26.3175C15.17 25.7125 13.5063 23.595 13.5063 21.3263C14.2625 21.6288 15.0188 21.9313 15.775 21.9313C13.6575 20.4188 12.9013 17.545 14.2625 15.2763C16.8338 18.3013 20.4638 20.2675 24.5475 20.4188C23.7913 17.3938 26.2113 14.3688 29.3875 14.3688C30.7488 14.3688 32.11 14.9738 33.0175 15.8813C34.2275 15.5788 35.2863 15.2762 36.1938 14.6713C35.8913 15.8813 35.135 16.7888 34.0763 17.3938Z" fill="#495E57"/>
</svg>

