<svg width="49" height="49" viewBox="0 0 49 49" fill="none" xmlns="http://www.w3.org/2000/svg">
<path fill-rule="evenodd" clip-rule="evenodd" d="M19.3576 32.8212C20.8701 33.7288 22.6851 34.1825 24.5 34.1825C30.0963 34.1825 34.4826 29.645 34.4826 24.3512C34.4826 21.6288 33.5751 19.2087 31.6088 17.2425C29.6426 15.4275 27.2226 14.3688 24.5 14.3688C19.0551 14.3688 14.5175 18.9062 14.5175 24.3512C14.5175 26.1663 14.9713 27.9813 16.03 29.645L16.3326 30.0988L15.2738 33.7288L19.055 32.67L19.3576 32.8212ZM27.8276 25.7125C28.1301 25.7125 29.6426 26.4688 29.9451 26.62C29.9922 26.6436 30.0393 26.6634 30.0858 26.6831C30.3381 26.7896 30.5736 26.889 30.7013 27.5275C30.8526 27.5275 30.8525 28.1325 30.55 28.8887C30.3988 29.4938 29.1888 30.25 28.5838 30.25C28.4813 30.25 28.3832 30.2587 28.2783 30.268C27.7643 30.3134 27.0894 30.3731 24.9538 29.4938C22.3032 28.4335 20.4655 25.8636 19.9494 25.142C19.8765 25.04 19.83 24.975 19.8113 24.9563C19.7855 24.9048 19.7335 24.8226 19.6648 24.7141C19.3302 24.1858 18.6013 23.035 18.6013 21.78C18.6013 20.2675 19.3575 19.5113 19.66 19.2087C19.9625 18.9062 20.265 18.9062 20.4163 18.9062H21.0213C21.1726 18.9062 21.4751 18.9062 21.6263 19.36C21.9288 19.965 22.5338 21.4775 22.5338 21.6288C22.5338 21.6792 22.5506 21.7296 22.5674 21.78C22.601 21.8808 22.6346 21.9817 22.5338 22.0825C22.4582 22.1581 22.4204 22.2337 22.3826 22.3094C22.3447 22.385 22.3069 22.4606 22.2313 22.5363L21.7776 22.99C21.6263 23.1413 21.4751 23.2925 21.6263 23.595C21.7776 23.8975 22.3826 24.9563 23.2901 25.7125C24.3112 26.606 25.1168 26.9609 25.5253 27.1408C25.6008 27.1741 25.6628 27.2014 25.71 27.225C26.0125 27.225 26.1638 27.225 26.3151 27.0738C26.3907 26.9225 26.5797 26.6956 26.7688 26.4688C26.9579 26.2419 27.1469 26.015 27.2225 25.8637C27.3738 25.5613 27.5251 25.5613 27.8276 25.7125Z" fill="#495E57"/>
<path fill-rule="evenodd" clip-rule="evenodd" d="M0.300049 7.5625C0.300049 3.38585 3.6859 0 7.86255 0H41.1376C45.3142 0 48.7001 3.38585 48.7001 7.5625V40.8375C48.7001 45.0142 45.3142 48.4 41.1376 48.4H7.86255C3.6859 48.4 0.300049 45.0142 0.300049 40.8375V7.5625ZM24.5 12.1C27.6763 12.1 30.7013 13.31 32.9701 15.5788C35.2388 17.8475 36.6001 20.8725 36.6001 24.0488C36.6001 30.7038 31.1551 36.1488 24.5 36.1488C22.5338 36.1488 20.5676 35.5438 18.7526 34.6363L12.4 36.3L14.0638 30.25C13.0051 28.435 12.4 26.3175 12.4 24.2C12.4 17.545 17.845 12.1 24.5 12.1Z" fill="#495E57"/>
</svg>

